<svg height="152" viewBox="0 0 257 152" width="257" xmlns="http://www.w3.org/2000/svg" xmlns:xlink="http://www.w3.org/1999/xlink">
    <defs>
        <rect id="a" height="123.572184" rx="3.855422" width="200" y=".484177" />
        <mask id="b" fill="#fff">
            <use fill="#fff" fill-rule="evenodd" xlink:href="#a" />
        </mask>
    </defs>
    <g fill="none" fill-rule="evenodd">
        <g>
            <g transform="translate(69.6 123.538802)">
                <path d="m60.5550009 26.9006745v.7701507c.0647827.3653416-.4988354.9411079-4.7489851.9411062-4.3826261-.0000012-17.8719811-.0000007-25.4732967-.0000003-7.6013158-.0000004-21.09066981-.0000009-25.47329574.0000003-4.25014978.0000017-4.8137678-.5757646-4.74359318-.9411062l-.00539199-.7701507.75323545.3357939h58.93809186z" opacity=".5" />
                <path d="m60.5550009 26.5648805v.7701507c.0647827.3653416-.4988354.9411079-4.7489851.9411063-4.3826261-.0000013-17.8719811-.0000008-25.4732967-.0000004-7.6013158-.0000004-21.09066981-.0000009-25.47329574.0000004-4.25014978.0000016-4.8137678-.5757647-4.74359318-.9411063l-.00539199-.7701507.75323545.335794h58.93809186z" fill="#c6c7ca" />
                <path d="m52.9190042 23.3278608c1.0530865 1.6486779 7.4331601 2.9429157 7.4331601 2.9429157s1.6837968 1.2352127-4.5418607 1.2352102c-4.3829635-.0000012-17.8733569-.0000007-25.4752578-.0000003-7.601901-.0000004-21.09229349-.0000009-25.47525683.0000003-6.22565744.0000025-4.54186067-1.2352102-4.54186067-1.2352102s6.38007365-1.2942378 7.43316011-2.9429157c1.05308645-1.648678 2.88544719-23.25874137 2.88544719-23.25874137h39.3970215s1.8323607 21.61006337 2.8854471 23.25874137z" fill="#d8d8d8" />
            </g>
            <use fill="#9b9b9b" fill-opacity=".300159" xlink:href="#a" />
            <use fill="#e1e1e1" xlink:href="#a" />
            <g fill="#fff" mask="url(#b)">
                <path d="m0 0v104.245617h186.535516v-104.245617z" transform="translate(6.746988 9.199367)" />
            </g>
            <g transform="translate(8.915574 34.857895)">
                <g fill="#54698d">
                    <path d="m0 0h49v75.8000031h-49z" fill="#54698d" />
                    <path d="m51 0h79v75.8000031h-79z" fill="#54698d" />
                    <path d="m132 0h50v75.8000031h-50z" fill="#54698d" />
                </g>
                <text fill="#fff" font-family="SalesforceSans-Bold, Salesforce Sans" font-size="10" font-weight="bold">
                    <tspan x="21.45" y="41">2</tspan>
                </text>
                <text fill="#fff" font-family="SalesforceSans-Bold, Salesforce Sans" font-size="10" font-weight="bold">
                    <tspan x="87.45" y="41">3</tspan>
                </text>
                <text fill="#fff" font-family="SalesforceSans-Bold, Salesforce Sans" font-size="10" font-weight="bold">
                    <tspan x="154.45" y="41">4</tspan>
                </text>
            </g>
            <path d="m8.91557439 11.8578947h181.99999961v21h-181.99999961z" fill="#54698d" />
            <text fill="#fff" font-family="SalesforceSans-Bold, Salesforce Sans" font-size="10" font-weight="bold">
                <tspan x="96.865574" y="25.857895">1</tspan>
            </text>
        </g>
        <g transform="translate(211 58)">
            <g fill-rule="nonzero">
                <path d="m45.5536049 26.6811145c.0142325-.0305341.0221527-.06362.0221527-.0971328v-6.4451097c0-.0368802-.0078435-.0718724-.0221527-.103301v-14.11362893c0-3.27059829-2.6447667-5.92194207-5.9290853-5.92194207h-33.67328158c-3.27454342 0-5.92908536 2.65660327-5.92908536 5.92194207v6.06655413c-.01423248.03125-.02215266.0660818-.02215266.1030198v3.2955572c0 .0371682.00784343.0724335.02215266.1041074v4.5505587c-.01423248.030534-.02215266.06362-.02215266.0971327v6.4451097c0 .0368803.00784343.0718724.02215266.1033011v1.8663427c-.01423248.030534-.02215266.06362-.02215266.0971328v6.4451096c0 .0368803.00784343.0718724.02215266.1033011v52.6946784c0 3.2705983 2.64476676 5.9219421 5.92908536 5.9219421h33.67328158c3.2745434 0 5.9290853-2.6566033 5.9290853-5.9219421zm-22.8120922 63.8964574c1.7412935 0 3.1528908-1.4083766 3.1528908-3.1456971s-1.4115973-3.1456971-3.1528908-3.1456971-3.1528907 1.4083766-3.1528907 3.1456971 1.4115972 3.1456971 3.1528907 3.1456971z" fill="#e1e1e1" />
                <path d="m2.44155844 11.4210526v70.9736842h40.69264066v-70.9736842z" fill="#fff" />
                <path d="m19.5030484 5.55123015c-.2088116 0-.3780868.1716689-.3780868.37008201 0 .20439065.1688857.37008201.3780868.37008201h6.6623928c.2088116 0 .3780869-.17166891.3780869-.37008201 0-.20439065-.1688857-.37008201-.3780869-.37008201z" fill="#fff" />
                <path d="m15.5084104 6.66147618c.4097161 0 .7418566-.33138272.7418566-.74016402s-.3321405-.74016402-.7418566-.74016402c-.4097162 0-.7418567.33138272-.7418567.74016402s.3321405.74016402.7418567.74016402z" fill="#fff" />
                <path d="m22.8342448 3.42325859c.2560726 0 .4636604-.2071142.4636604-.46260251s-.2075878-.46260251-.4636604-.46260251c-.2560725 0-.4636604.2071142-.4636604.46260251s.2075879.46260251.4636604.46260251z" fill="#fff" />
                <g transform="translate(19 84)">
                    <ellipse cx="3.946197" cy="3.891426" fill="#fff" rx="3.506288" ry="3.496448" />
                    <path d="m3.94619735 7.0198272c1.73263034 0 3.13720478-1.40063296 3.13720478-3.12840126s-1.40457444-3.12840125-3.13720478-3.12840125c-1.73263035 0-3.13720477 1.40063295-3.13720477 3.12840125s1.40457442 3.12840126 3.13720477 3.12840126z" fill="#e1e1e1" />
                </g>
                <path d="m4.883117 13.868421h35.809524v20.394737h-35.809524z" fill="#54698d" />
                <path d="m4.883117 36.710526h35.809524v20.394737h-35.809524z" fill="#54698d" />
                <path d="m4.883117 59.552632h35.809524v20.394737h-35.809524z" fill="#54698d" />
            </g>
            <text fill="#fff" font-family="SalesforceSans-Bold, Salesforce Sans" font-size="9.766234" font-weight="bold" transform="translate(18.557576 17.72914)">
                <tspan x=".926061" y="10.078947">1</tspan>
            </text>
            <text fill="#fff" font-family="SalesforceSans-Bold, Salesforce Sans" font-size="9.766234" font-weight="bold" transform="translate(18.557576 39.72914)">
                <tspan x=".926061" y="10.921053">2</tspan>
            </text>
            <text fill="#fff" font-family="SalesforceSans-Bold, Salesforce Sans" font-size="9.766234" font-weight="bold" transform="translate(18.557576 62.72914)">
                <tspan x=".926061" y="10.763158">3</tspan>
            </text>
        </g>
    </g>
</svg>